<?xml version="1.0" encoding="utf-8"?>
<!-- Generator: Adobe Illustrator 24.0.1, SVG Export Plug-In . SVG Version: 6.00 Build 0)  -->
<svg version="1.1" id="Capa_1" xmlns="http://www.w3.org/2000/svg" xmlns:xlink="http://www.w3.org/1999/xlink" x="0px" y="0px"
	 viewBox="0 0 512 512" style="enable-background:new 0 0 512 512;" xml:space="preserve">
<style type="text/css">
	.st0{fill:#1791E6;}
</style>
<g>
	<g>
		<path class="st0" d="M467,380.9c-2-10.9-12.5-18-23.3-16c-10.9,2-18,12.5-16,23.3c1.5,8.1-2,13.8-4.3,16.5
			c-2.2,2.7-7.2,7.2-15.4,7.2H104.4c-8.2,0-13.1-4.5-15.4-7.2c-2.2-2.7-5.8-8.4-4.3-16.5c5.7-30.3,17.1-50.2,28.1-69.4
			c13.4-23.4,27.2-47.6,27.2-84.8v-30c0-63.1,51.3-115.1,114.3-116h3.8C320.9,88.9,372,140.9,372,204v30c0,31.7,10.4,53.6,20.1,71.5
			c3.6,6.7,10.5,10.5,17.6,10.5c3.2,0,6.5-0.8,9.5-2.4c9.7-5.3,13.3-17.4,8.1-27.1c-9.7-17.9-15.3-32.2-15.3-52.5v-30
			c0-41.2-15.9-80-44.9-109.5c-24.8-25.2-56.7-41-91.1-45.3V20c0-11-9-20-20-20c-11,0-20,9-20,20v29.3c-76.5,9.9-136,75.9-136,154.7
			v30c0,26.6-9.7,43.6-21.9,65c-12.1,21.1-25.7,45-32.7,81.9c-3.3,17.6,1.4,35.6,12.8,49.4c11.4,13.8,28.3,21.7,46.2,21.7h92
			c0,33.1,26.9,60,60,60s60-26.9,60-60H408c17.9,0,34.7-7.9,46.2-21.7C465.6,416.5,470.3,398.5,467,380.9z M256.4,472
			c-11,0-20-9-20-20h40C276.4,463,267.4,472,256.4,472z"/>
	</g>
</g>
<g>
	<g>
		<path class="st0" d="M108.4,45.1c-8.2-7.4-20.9-6.7-28.2,1.6C41.4,90,20,145.9,20,204c0,11,9,20,20,20s20-9,20-20
			c0-48.3,17.7-94.7,49.9-130.7C117.3,65.1,116.6,52.5,108.4,45.1z"/>
	</g>
</g>
<g>
	<g>
		<path class="st0" d="M431.9,46.7c-7.4-8.2-20-8.9-28.2-1.6s-8.9,20-1.6,28.2c32.2,36,49.9,82.4,49.9,130.7c0,11,9,20,20,20
			s20-9,20-20C492,145.9,470.6,90,431.9,46.7z"/>
	</g>
</g>
</svg>
