<?xml version="1.0" encoding="utf-8"?>
<!-- Generator: Adobe Illustrator 24.0.1, SVG Export Plug-In . SVG Version: 6.00 Build 0)  -->
<svg version="1.1" id="Layer_1" xmlns="http://www.w3.org/2000/svg" xmlns:xlink="http://www.w3.org/1999/xlink" x="0px" y="0px"
	 viewBox="0 0 325 137" style="enable-background:new 0 0 325 137;" xml:space="preserve">
<style type="text/css">
	.st0{fill:url(#SVGID_1_);}
	.st1{fill:url(#SVGID_2_);}
	.st2{fill:url(#SVGID_3_);}
	.st3{fill:#0A0A0A;}
	.st4{fill:url(#SVGID_4_);}
	.st5{fill:url(#SVGID_5_);}
	.st6{fill:#06151F;}
</style>
<title>Asset 12</title>
<g id="Layer_2_1_">
	<g id="Layer_1-2">
		<g>
			<g>
				<g>
					
						<linearGradient id="SVGID_1_" gradientUnits="userSpaceOnUse" x1="162.5" y1="19.09" x2="162.5" y2="140" gradientTransform="matrix(1 0 0 -1 0 140)">
						<stop  offset="0" style="stop-color:#999999"/>
						<stop  offset="0.25" style="stop-color:#939393"/>
						<stop  offset="0.58" style="stop-color:#838383"/>
						<stop  offset="0.95" style="stop-color:#686868"/>
						<stop  offset="1" style="stop-color:#646464"/>
					</linearGradient>
					<path class="st0" d="M296.4,0H28.6C19,0,11.2,7.8,11.2,17.4v86.2c0,9.6,7.8,17.4,17.4,17.4h267.9c9.6,0,17.4-7.8,17.4-17.4
						V17.4C313.8,7.8,306,0,296.4,0z M312.8,103.5c0,9-7.3,16.4-16.4,16.4H28.6c-9,0-16.4-7.3-16.4-16.4V17.4
						c0-9,7.3-16.4,16.4-16.4h267.9c9,0,16.4,7.3,16.4,16.4V103.5z"/>
					
						<linearGradient id="SVGID_2_" gradientUnits="userSpaceOnUse" x1="62.4247" y1="-20.5273" x2="262.5694" y2="179.6273" gradientTransform="matrix(1 0 0 -1 0 140)">
						<stop  offset="0" style="stop-color:#FFFFFF"/>
						<stop  offset="5.000000e-02" style="stop-color:#EDEDED"/>
						<stop  offset="0.15" style="stop-color:#BDBDBD"/>
						<stop  offset="0.2" style="stop-color:#A6A6A6"/>
						<stop  offset="0.24" style="stop-color:#ACACAC"/>
						<stop  offset="0.28" style="stop-color:#BCBCBC"/>
						<stop  offset="0.34" style="stop-color:#D7D7D7"/>
						<stop  offset="0.4" style="stop-color:#FDFDFD"/>
						<stop  offset="0.4" style="stop-color:#FFFFFF"/>
						<stop  offset="0.6" style="stop-color:#A6A6A6"/>
						<stop  offset="0.8" style="stop-color:#FFFFFF"/>
						<stop  offset="1" style="stop-color:#A6A6A6"/>
					</linearGradient>
					<path class="st1" d="M312.8,17.4v86.2c0,9-7.3,16.4-16.4,16.4H28.6c-9,0-16.4-7.3-16.4-16.4V17.4c0-9,7.3-16.4,16.4-16.4h267.9
						C305.5,1,312.8,8.3,312.8,17.4z M304.8,17.4c0-4.6-3.7-8.3-8.3-8.3H28.6c-4.6,0-8.3,3.7-8.3,8.3v86.2c0,4.6,3.7,8.3,8.3,8.3
						h267.9c4.6,0,8.3-3.7,8.3-8.3V17.4z"/>
					
						<linearGradient id="SVGID_3_" gradientUnits="userSpaceOnUse" x1="162.5" y1="28.15" x2="162.5" y2="130.95" gradientTransform="matrix(1 0 0 -1 0 140)">
						<stop  offset="0" style="stop-color:#FAFAFA"/>
						<stop  offset="0.11" style="stop-color:#F4F4F4"/>
						<stop  offset="0.25" style="stop-color:#E4E4E4"/>
						<stop  offset="0.41" style="stop-color:#C9C9C9"/>
						<stop  offset="0.58" style="stop-color:#A3A3A3"/>
						<stop  offset="0.76" style="stop-color:#727272"/>
						<stop  offset="0.95" style="stop-color:#383838"/>
						<stop  offset="1" style="stop-color:#282828"/>
					</linearGradient>
					<path class="st2" d="M296.4,9.1H28.6c-4.6,0-8.3,3.7-8.3,8.3v86.1c0,4.6,3.7,8.3,8.3,8.3h267.9c4.6,0,8.3-3.7,8.3-8.3V17.4
						C304.7,12.8,301,9.1,296.4,9.1z M303.7,103.5c0,4-3.3,7.3-7.3,7.3H28.6c-4,0-7.3-3.3-7.3-7.3V17.4c0-4,3.3-7.3,7.3-7.3h267.9
						c4,0,7.3,3.3,7.3,7.3V103.5z"/>
					<path class="st3" d="M28.6,10.1h267.9c4,0,7.3,3.3,7.3,7.3v86.1c0,4-3.3,7.3-7.3,7.3H28.6c-4,0-7.3-3.3-7.3-7.3V17.4
						C21.3,13.3,24.5,10.1,28.6,10.1z"/>
				</g>
				<g>
					<g>
						
							<linearGradient id="SVGID_4_" gradientUnits="userSpaceOnUse" x1="57.085" y1="19.09" x2="57.085" y2="15.25" gradientTransform="matrix(1 0 0 -1 0 140)">
							<stop  offset="0" style="stop-color:#333333"/>
							<stop  offset="1" style="stop-color:#000000"/>
						</linearGradient>
						<path class="st4" d="M35.1,120.9v1.9c0,1.1,0.9,1.9,1.9,1.9h40.2c1.1,0,1.9-0.9,1.9-1.9v-1.9L35.1,120.9z"/>
					</g>
					<g>
						
							<linearGradient id="SVGID_5_" gradientUnits="userSpaceOnUse" x1="267.91" y1="19.09" x2="267.91" y2="15.25" gradientTransform="matrix(1 0 0 -1 0 140)">
							<stop  offset="0" style="stop-color:#333333"/>
							<stop  offset="1" style="stop-color:#000000"/>
						</linearGradient>
						<path class="st5" d="M245.9,120.9v1.9c0,1.1,0.9,1.9,1.9,1.9l0,0H288c1.1,0,1.9-0.9,1.9-1.9v-1.9H245.9z"/>
					</g>
				</g>
			</g>
			<g>
				<g>
					<path class="st6" d="M121.1,45.2c-0.3,1.3-1.4,2.3-2.8,2.4c-1.1,0-2-0.9-2-2c0-0.1,0-0.3,0-0.4c0.3-1.3,1.4-2.3,2.8-2.4
						c1.1,0,2,0.9,2,2C121.2,44.9,121.2,45,121.1,45.2z"/>
					<path class="st6" d="M115.2,78.6c-0.3,1.3-1.4,2.3-2.8,2.4c-1.1,0-2-0.9-2-2c0-0.1,0-0.3,0-0.4c0.3-1.3,1.4-2.3,2.8-2.4
						c1.1-0.1,2,0.7,2.1,1.8C115.3,78.2,115.3,78.4,115.2,78.6z"/>
				</g>
				<g>
					<path class="st6" d="M214.5,45.2c-0.3,1.3-1.4,2.3-2.8,2.4c-1.1,0-2-0.9-2-2c0-0.1,0-0.3,0-0.4c0.3-1.3,1.4-2.3,2.8-2.4
						c1.1,0,2,0.9,2,2C214.6,44.9,214.6,45,214.5,45.2z"/>
					<path class="st6" d="M208.6,78.6c-0.3,1.3-1.4,2.3-2.8,2.4c-1.1,0-2-0.9-2-2c0-0.1,0-0.3,0-0.4c0.3-1.3,1.4-2.3,2.8-2.4
						c1.1-0.1,2,0.7,2.1,1.8C208.7,78.2,208.7,78.4,208.6,78.6z"/>
				</g>
			</g>
		</g>
	</g>
</g>
</svg>
